HIERARCHY
ROOT hip
{
  OFFSET 0 0 0
  CHANNELS 6 Xposition Yposition Zposition Zrotation Yrotation Xrotation
  JOINT abdomen
  {
    OFFSET 0 20.6881 -0.73152
    CHANNELS 3 Zrotation Xrotation Yrotation
    JOINT chest
    {
      OFFSET 0 11.7043 -0.48768
      CHANNELS 3 Zrotation Xrotation Yrotation
      JOINT neck
      {
        OFFSET 0 22.1894 -2.19456
        CHANNELS 3 Zrotation Xrotation Yrotation
        JOINT head
        {
          OFFSET -0.24384 7.07133 1.2192
          CHANNELS 3 Zrotation Xrotation Yrotation
          JOINT leftEye
          {
            OFFSET 4.14528 8.04674 8.04672
            CHANNELS 3 Zrotation Xrotation Yrotation
            End Site
            {
              OFFSET 1 0 0
            }
          }
          JOINT rightEye
          {
            OFFSET -3.6576 8.04674 8.04672
            CHANNELS 3 Zrotation Xrotation Yrotation
            End Site
            {
              OFFSET 1 0 0
            }
          }
        }
      }
      JOINT rCollar
      {
        OFFSET -2.68224 19.2634 -4.8768
        CHANNELS 3 Zrotation Xrotation Yrotation
        JOINT rShldr
        {
          OFFSET -8.77824 -1.95073 1.46304
          CHANNELS 3 Zrotation Xrotation Yrotation
          JOINT rForeArm
          {
            OFFSET -28.1742 -1.7115 0.48768
            CHANNELS 3 Zrotation Xrotation Yrotation
            JOINT rHand
            {
              OFFSET -22.5879 0.773209 7.07136
              CHANNELS 3 Zrotation Xrotation Yrotation
              JOINT rThumb1
              {
                OFFSET -1.2192 -0.487915 3.41376
                CHANNELS 3 Zrotation Xrotation Yrotation
                JOINT rThumb2
                {
                  OFFSET -3.37035 -0.52449 3.41376
                  CHANNELS 3 Zrotation Xrotation Yrotation
                  End Site
                  {
                    OFFSET -1.78271 -1.18214 1.43049
                  }
                }
              }
              JOINT rIndex1
              {
                OFFSET -7.75947 0.938293 5.60832
                CHANNELS 3 Zrotation Xrotation Yrotation
                JOINT rIndex2
                {
                  OFFSET -2.54057 -0.884171 1.56538
                  CHANNELS 3 Zrotation Xrotation Yrotation
                  End Site
                  {
                    OFFSET -1.62519 -0.234802 1.16502
                  }
                }
              }
              JOINT rMid1
              {
                OFFSET -8.24714 1.18213 3.41376
                CHANNELS 3 Zrotation Xrotation Yrotation
                JOINT rMid2
                {
                  OFFSET -3.10165 -0.590103 1.0647
                  CHANNELS 3 Zrotation Xrotation Yrotation
                  End Site
                  {
                    OFFSET -2.48547 -0.328903 0.83742
                  }
                }
              }
              JOINT rRing1
              {
                OFFSET -8.82822 0.546677 1.51678
                CHANNELS 3 Zrotation Xrotation Yrotation
                JOINT rRing2
                {
                  OFFSET -2.60934 -0.819778 -0.0198488
                  CHANNELS 3 Zrotation Xrotation Yrotation
                  End Site
                  {
                    OFFSET -2.33842 -0.294052 0.168128
                  }
                }
              }
              JOINT rPinky1
              {
                OFFSET -8.27202 -0.0477905 -0.4584
                CHANNELS 3 Zrotation Xrotation Yrotation
                JOINT rPinky2
                {
                  OFFSET -1.82734 -0.647385 -0.700984
                  CHANNELS 3 Zrotation Xrotation Yrotation
                  End Site
                  {
                    OFFSET -1.69225 -0.51767 -0.607171
                  }
                }
              }
            }
          }
        }
      }
      JOINT lCollar
      {
        OFFSET 2.68224 19.2634 -4.8768
        CHANNELS 3 Zrotation Xrotation Yrotation
        JOINT lShldr
        {
          OFFSET 8.77824 -1.95073 1.46304
          CHANNELS 3 Zrotation Xrotation Yrotation
          JOINT lForeArm
          {
            OFFSET 28.1742 -1.7115 0.48768
            CHANNELS 3 Zrotation Xrotation Yrotation
            JOINT lHand
            {
              OFFSET 22.5879 0.773209 7.07136
              CHANNELS 3 Zrotation Xrotation Yrotation
              JOINT lThumb1
              {
                OFFSET 1.2192 -0.487915 3.41376
                CHANNELS 3 Zrotation Xrotation Yrotation
                JOINT lThumb2
                {
                  OFFSET 3.37035 -0.52449 3.41376
                  CHANNELS 3 Zrotation Xrotation Yrotation
                  End Site
                  {
                    OFFSET 1.78271 -1.18214 1.43049
                  }
                }
              }
              JOINT lIndex1
              {
                OFFSET 7.75947 0.938293 5.60832
                CHANNELS 3 Zrotation Xrotation Yrotation
                JOINT lIndex2
                {
                  OFFSET 2.54057 -0.884171 1.56538
                  CHANNELS 3 Zrotation Xrotation Yrotation
                  End Site
                  {
                    OFFSET 1.62519 -0.234802 1.16502
                  }
                }
              }
              JOINT lMid1
              {
                OFFSET 8.24714 1.18213 3.41376
                CHANNELS 3 Zrotation Xrotation Yrotation
                JOINT lMid2
                {
                  OFFSET 3.10165 -0.590103 1.0647
                  CHANNELS 3 Zrotation Xrotation Yrotation
                  End Site
                  {
                    OFFSET 2.48547 -0.328903 0.83742
                  }
                }
              }
              JOINT lRing1
              {
                OFFSET 8.82822 0.546677 1.51678
                CHANNELS 3 Zrotation Xrotation Yrotation
                JOINT lRing2
                {
                  OFFSET 2.60934 -0.819778 -0.0198488
                  CHANNELS 3 Zrotation Xrotation Yrotation
                  End Site
                  {
                    OFFSET 2.33842 -0.294052 0.168128
                  }
                }
              }
              JOINT lPinky1
              {
                OFFSET 8.27202 -0.0477905 -0.4584
                CHANNELS 3 Zrotation Xrotation Yrotation
                JOINT lPinky2
                {
                  OFFSET 1.82734 -0.647385 -0.700984
                  CHANNELS 3 Zrotation Xrotation Yrotation
                  End Site
                  {
                    OFFSET 1.69225 -0.51767 -0.607171
                  }
                }
              }
            }
          }
        }
      }
    }
  }
  JOINT rButtock
  {
    OFFSET -8.77824 4.35084 1.2192
    CHANNELS 3 Zrotation Xrotation Yrotation
    JOINT rThigh
    {
      OFFSET 0 -1.70687 -2.19456
      CHANNELS 3 Zrotation Xrotation Yrotation
      JOINT rShin
      {
        OFFSET 0 -36.8199 0.73152
        CHANNELS 3 Zrotation Xrotation Yrotation
        JOINT rFoot
        {
          OFFSET 0.73152 -45.1104 -5.12064
          CHANNELS 3 Zrotation Xrotation Yrotation
          End Site
          {
            OFFSET -1.1221 -3.69964 12.103
          }
        }
      }
    }
  }
  JOINT lButtock
  {
    OFFSET 8.77824 4.35084 1.2192
    CHANNELS 3 Zrotation Xrotation Yrotation
    JOINT lThigh
    {
      OFFSET 0 -1.70687 -2.19456
      CHANNELS 3 Zrotation Xrotation Yrotation
      JOINT lShin
      {
        OFFSET 0 -36.8199 0.73152
        CHANNELS 3 Zrotation Xrotation Yrotation
        JOINT lFoot
        {
          OFFSET -0.73152 -45.1104 -5.12064
          CHANNELS 3 Zrotation Xrotation Yrotation
          End Site
          {
            OFFSET 1.1221 -3.69964 12.103
          }
        }
      }
    }
  }
}
MOTION
Frames:	8
Frame Time:	0.00833333
0.021132 84.3996 -75.0751 0.0 0.0 0.0 -0.99123 -0.00434162 -0.0274293 -0.273431 -0.00447537 -0.047371 -2.73028e-14 -7.95139e-16 -9.93923e-17 -8.22627e-14 3.18055e-15 -1.86361e-16 -0.0 0.0 0.0 -0.0 0.0 0.0 -1.36683e-14 -8.15328e-18 4.96962e-17 -2.85161e-13 -5.65294e-16 -5.96354e-16 -4.92588e-12 1.46763e-12 2.8625e-14 -5.64498e-11 -1.53243e-12 -2.63986e-13 -1.33144e-10 -1.38111e-13 -5.1843e-13 -2.29934e-10 -2.41722e-13 -8.82604e-13 -1.33136e-10 -1.37161e-13 -5.12069e-13 7.73091 5.47488 0.417314 -1.33143e-10 -1.37957e-13 -5.12069e-13 2.90554 0.965183 0.102902 -1.3313e-10 -1.37758e-13 -5.1366e-13 10.2786 0.731801 0.0259123 -1.33145e-10 -1.36764e-13 -5.08889e-13 2.22167 -0.733487 -0.20892 -1.36655e-14 -9.51216e-18 -1.49089e-16 -2.887e-13 -4.41053e-16 -2.78299e-15 -4.93577e-12 -1.48293e-12 1.59028e-14 -5.64307e-11 1.42854e-12 -2.67167e-13 -1.33125e-10 -1.1651e-13 -5.24792e-13 -2.29901e-10 -2.03556e-13 -8.92941e-13 -1.33131e-10 -1.14102e-13 -5.1843e-13 -7.73091 5.47488 -0.417314 -1.33125e-10 -1.15991e-13 -5.1843e-13 -2.90554 0.965183 -0.102902 -1.33134e-10 -1.16289e-13 -5.20816e-13 -10.2786 0.731801 -0.0259123 -1.33118e-10 -1.13705e-13 -5.24792e-13 -2.22167 -0.733487 0.20892 -2.03217e-16 0.0 -3.88251e-19 -0.253707 -1.9193 -0.0128562 -0.00928981 -2.07855 -0.0767388 -0.49745 3.99655 0.138122 2.03217e-16 0.0 3.88251e-19 -1.25481 -5.46678 0.109733 -9.55458e-05 4.34724 -0.0243782 0.511527 1.11836 -0.0811102
-0.557688 82.1908 -77.6465 -1.6888 -2.6742 11.5411 -0.666853 3.39281 -0.327139 0.137739 0.909423 -0.123679 -0.5861 0.338832 -0.0719044 1.14654 3.12263 -0.123222 -0.0 0.0 0.0 -0.0 0.0 0.0 -7.99081e-15 4.37025e-14 2.76672e-14 20.7225 3.21136 2.82393 -4.22265 -1.9192 6.59481 0.0964593 6.89863 0.944345 6.60263e-11 3.13415e-10 -8.42141e-10 9.75384e-11 5.4853e-10 -1.4581e-09 6.60351e-11 3.13417e-10 -8.42139e-10 7.73091 5.47488 0.417314 6.60274e-11 3.13415e-10 -8.42139e-10 2.90554 0.965183 0.102902 6.60398e-11 3.13416e-10 -8.4214e-10 10.2786 0.731801 0.0259123 6.60244e-11 3.13417e-10 -8.42135e-10 2.22167 -0.733487 -0.20892 -8.05458e-15 4.37e-14 2.74571e-14 -20.3678 5.94829 -3.92157 3.26164 -1.33194 -5.24575 -0.0165316 -2.85268 0.399125 2.45113e-10 5.8685e-10 1.04353e-09 4.18956e-10 1.01247e-09 1.80617e-09 2.45106e-10 5.86851e-10 1.04354e-09 -7.73091 5.47488 -0.417314 2.45113e-10 5.86849e-10 1.04353e-09 -2.90554 0.965183 -0.102902 2.45106e-10 5.86848e-10 1.04353e-09 -10.2786 0.731801 -0.0259123 2.4512e-10 5.86851e-10 1.04353e-09 -2.22167 -0.733487 0.20892 -2.03217e-16 0.0 -3.88251e-19 -0.799732 -10.3683 -0.91672 -0.00449254 7.49664 0.0564607 -0.470535 0.0109789 0.199763 2.03217e-16 0.0 3.88251e-19 -0.285811 -12.8966 2.78292 -0.011795 12.4561 -0.163356 0.655746 -2.06373 1.40259
-0.562931 82.1843 -77.7205 -1.6895 -2.7758 11.5922 -0.285794 6.97935 -0.649629 0.575958 1.87655 -0.205092 -1.20596 0.696017 -0.151236 2.38044 6.4215 -0.261394 -0.0 0.0 0.0 -0.0 0.0 0.0 -2.87987e-15 9.00472e-14 5.91105e-14 42.2821 6.57811 5.8408 -8.21088 -3.86419 13.592 -0.0558661 14.1838 1.98907 2.67803e-10 6.52561e-10 -1.7361e-09 4.28489e-10 1.14192e-09 -3.00574e-09 2.67812e-10 6.52564e-10 -1.7361e-09 7.73091 5.47488 0.417314 2.67804e-10 6.52562e-10 -1.7361e-09 2.90554 0.965183 0.102902 2.67816e-10 6.52562e-10 -1.7361e-09 10.2786 0.731801 0.0259123 2.67801e-10 6.52563e-10 -1.7361e-09 2.22167 -0.733487 -0.20892 -3.01552e-15 9.00435e-14 5.889e-14 -41.0011 12.1476 -8.21073 6.44764 -2.70394 -10.8035 0.00941393 -5.86809 0.824383 6.59169e-10 1.20066e-09 2.16552e-09 1.12934e-09 2.07129e-09 3.74822e-09 6.59163e-10 1.20066e-09 2.16552e-09 -7.73091 5.47488 -0.417314 6.59169e-10 1.20065e-09 2.16552e-09 -2.90554 0.965183 -0.102902 6.59164e-10 1.20065e-09 2.16552e-09 -10.2786 0.731801 -0.0259123 6.59178e-10 1.20066e-09 2.16551e-09 -2.22167 -0.733487 0.20892 -2.03217e-16 0.0 -3.88251e-19 -1.68156 -19.2824 -1.95248 -0.0495022 17.6112 0.20578 -0.432724 -4.20196 0.265927 2.03217e-16 0.0 3.88251e-19 1.54226 -20.6741 5.84154 0.0215526 21.0216 -0.323884 0.987372 -5.42202 2.97899
-0.562189 82.1598 -77.7906 -1.6682 -2.8554 11.6297 0.0900004 10.1859 -0.93965 0.967391 2.7372 -0.276565 -1.75575 1.01649 -0.215743 3.48037 9.36772 -0.374107 -0.0 0.0 0.0 -0.0 0.0 0.0 3.3641e-15 1.31124e-13 8.29021e-14 61.2104 9.53987 8.57797 -11.3668 -5.45311 19.867 -0.432448 20.6726 3.00625 4.64366e-10 9.40521e-10 -2.52539e-09 7.52484e-10 1.64607e-09 -4.37253e-09 4.64376e-10 9.40525e-10 -2.52539e-09 7.73091 5.47488 0.417314 4.64368e-10 9.40522e-10 -2.52539e-09 2.90554 0.965183 0.102902 4.6438e-10 9.40522e-10 -2.52539e-09 10.2786 0.731801 0.0259123 4.64364e-10 9.40523e-10 -2.52539e-09 2.22167 -0.733487 -0.20892 3.1673e-15 1.31119e-13 8.26696e-14 -58.5797 17.5026 -12.2779 9.06208 -3.86205 -15.7697 0.0707695 -8.55637 1.20935 1.00159e-09 1.76078e-09 3.13164e-09 1.71667e-09 3.03782e-09 5.42031e-09 1.00158e-09 1.76078e-09 3.13164e-09 -7.73091 5.47488 -0.417314 1.00159e-09 1.76078e-09 3.13164e-09 -2.90554 0.965183 -0.102902 1.00158e-09 1.76078e-09 3.13164e-09 -10.2786 0.731801 -0.0259123 1.0016e-09 1.76078e-09 3.13163e-09 -2.22167 -0.733487 0.20892 -2.03217e-16 0.0 -3.88251e-19 -2.77813 -27.238 -3.01403 -0.139595 26.6466 0.359493 -0.390576 -7.96005 0.326868 2.03217e-16 0.0 3.88251e-19 3.96329 -27.5126 8.93714 0.0979125 28.673 -0.490006 1.44236 -8.40511 4.41474
-0.555737 82.1337 -77.8492 -1.6217 -2.936 11.6655 0.374857 12.4438 -1.13599 1.23658 3.33166 -0.322933 -2.13232 1.24519 -0.243157 4.21291 11.4325 -0.418407 -0.0 0.0 0.0 -0.0 0.0 0.0 1.24406e-14 1.5903e-13 8.75646e-14 74.2384 11.579 10.5149 -13.3511 -6.4426 24.2573 -0.847353 25.1926 3.79067 6.47898e-10 1.10052e-09 -3.053e-09 1.05909e-09 1.92716e-09 -5.28717e-09 6.47908e-10 1.10052e-09 -3.05301e-09 7.73091 5.47488 0.417314 6.47899e-10 1.10052e-09 -3.05301e-09 2.90554 0.965183 0.102902 6.47912e-10 1.10052e-09 -3.05301e-09 10.2786 0.731801 0.0259123 6.47895e-10 1.10052e-09 -3.05301e-09 2.22167 -0.733487 -0.20892 1.22095e-14 1.59025e-13 8.73162e-14 -70.3385 21.074 -15.2985 10.7555 -4.61341 -19.2263 0.135268 -10.4284 1.48219 1.16491e-09 2.18671e-09 3.70808e-09 1.99639e-09 3.77359e-09 6.41752e-09 1.1649e-09 2.18671e-09 3.70809e-09 -7.73091 5.47488 -0.417314 1.16491e-09 2.1867e-09 3.70808e-09 -2.90554 0.965183 -0.102902 1.16491e-09 2.1867e-09 3.70808e-09 -10.2786 0.731801 -0.0259123 1.16492e-09 2.1867e-09 3.70807e-09 -2.22167 -0.733487 0.20892 -2.03217e-16 0.0 -3.88251e-19 -3.75902 -32.824 -3.87414 -0.237486 32.9845 0.48763 -0.356114 -10.5811 0.371177 2.03217e-16 0.0 3.88251e-19 6.16978 -32.2244 11.4104 0.183712 34.04 -0.626849 1.85457 -10.4723 5.45395
-0.551086 82.1058 -77.9149 -1.5951 -3.0103 11.7059 0.495744 13.3742 -1.19073 1.33228 3.55314 -0.333567 -2.26737 1.3458 -0.217326 4.41479 12.2656 -0.36103 -0.0 0.0 0.0 -0.0 0.0 0.0 2.85382e-14 1.64471e-13 5.72709e-14 79.311 12.3933 11.263 -14.0749 -6.79285 25.9643 -1.04883 26.9707 4.12162 8.35623e-10 1.05333e-09 -3.1874e-09 1.38059e-09 1.84751e-09 -5.52288e-09 8.35632e-10 1.05333e-09 -3.18741e-09 7.73091 5.47488 0.417314 8.35624e-10 1.05333e-09 -3.18741e-09 2.90554 0.965183 0.102902 8.35636e-10 1.05332e-09 -3.18741e-09 10.2786 0.731801 0.0259123 8.3562e-10 1.05333e-09 -3.18741e-09 2.22167 -0.733487 -0.20892 2.83122e-14 1.64468e-13 5.69941e-14 -74.8088 22.3874 -16.5096 11.3769 -4.88394 -20.5511 0.165387 -11.1583 1.58987 1.04625e-09 2.42796e-09 3.66391e-09 1.79187e-09 4.19222e-09 6.33992e-09 1.04625e-09 2.42796e-09 3.66392e-09 -7.73091 5.47488 -0.417314 1.04625e-09 2.42795e-09 3.66391e-09 -2.90554 0.965183 -0.102902 1.04625e-09 2.42795e-09 3.66391e-09 -10.2786 0.731801 -0.0259123 1.04626e-09 2.42795e-09 3.6639e-09 -2.22167 -0.733487 0.20892 -2.03217e-16 0.0 -3.88251e-19 -4.21409 -35.1146 -4.23626 -0.286633 35.5447 0.546033 -0.340888 -11.6087 0.390097 2.03217e-16 0.0 3.88251e-19 7.16558 -34.1247 12.4893 0.227195 36.2055 -0.688572 2.04742 -11.2711 5.90578
-0.545933 82.0745 -77.9802 -1.5719 -3.0779 11.747 0.491522 13.3565 -1.14186 1.30358 3.50824 -0.318652 -2.23003 1.35489 -0.153518 4.23623 12.2188 -0.230601 -0.0 0.0 0.0 -0.0 0.0 0.0 4.95053e-14 1.54059e-13 2.39784e-15 78.7732 12.3509 11.1416 -13.9804 -6.74302 25.7431 -1.0272 26.7956 4.08816 1.02528e-09 8.59479e-10 -3.04221e-09 1.71086e-09 1.51249e-09 -5.27582e-09 1.02528e-09 8.59481e-10 -3.04222e-09 7.73091 5.47488 0.417314 1.02528e-09 8.59479e-10 -3.04222e-09 2.90554 0.965183 0.102902 1.02529e-09 8.59478e-10 -3.04222e-09 10.2786 0.731801 0.0259123 1.02527e-09 8.59479e-10 -3.04221e-09 2.22167 -0.733487 -0.20892 4.93126e-14 1.54058e-13 2.08413e-15 -74.282 22.1594 -16.3287 11.2799 -4.83584 -20.3482 0.161769 -11.0728 1.57721 7.27672e-10 2.53715e-09 3.18002e-09 1.24402e-09 4.38402e-09 5.5008e-09 7.27666e-10 2.53715e-09 3.18002e-09 -7.73091 5.47488 -0.417314 7.27673e-10 2.53714e-09 3.18001e-09 -2.90554 0.965183 -0.102902 7.2767e-10 2.53714e-09 3.18001e-09 -10.2786 0.731801 -0.0259123 7.27679e-10 2.53714e-09 3.18e-09 -2.22167 -0.733487 0.20892 -2.03217e-16 0.0 -3.88251e-19 -4.1888 -35.0582 -4.16972 -0.283158 35.4066 0.54237 -0.341513 -11.4982 0.39011 2.03217e-16 0.0 3.88251e-19 7.04539 -34.0702 12.4057 0.22423 36.0845 -0.685124 2.04468 -11.1689 5.92775
-0.541053 82.0407 -78.0462 -1.5545 -3.1376 11.7887 0.439628 12.9598 -1.05419 1.22527 3.35731 -0.294198 -2.12345 1.32676 -0.0765924 3.91115 11.8165 -0.0756552 -0.0 0.0 0.0 -0.0 0.0 0.0 6.75315e-14 1.43745e-13 -4.92264e-14 75.9925 11.9605 10.67 -13.5565 -6.53155 24.7484 -0.916452 25.8433 3.90954 1.1798e-09 6.51827e-10 -2.82819e-09 1.98186e-09 1.15284e-09 -4.90915e-09 1.1798e-09 6.51827e-10 -2.8282e-09 7.73091 5.47488 0.417314 1.1798e-09 6.51826e-10 -2.8282e-09 2.90554 0.965183 0.102902 1.17981e-09 6.51825e-10 -2.8282e-09 10.2786 0.731801 0.0259123 1.17979e-09 6.51825e-10 -2.82819e-09 2.22167 -0.733487 -0.20892 6.73801e-14 1.43748e-13 -4.95692e-14 -71.7593 21.3145 -15.5885 10.8932 -4.65894 -19.532 0.144727 -10.6619 1.51657 3.79112e-10 2.58838e-09 2.64036e-09 6.4456e-10 4.47567e-09 4.56503e-09 3.79108e-10 2.58838e-09 2.64037e-09 -7.73091 5.47488 -0.417314 3.79114e-10 2.58838e-09 2.64035e-09 -2.90554 0.965183 -0.102902 3.7911e-10 2.58838e-09 2.64035e-09 -10.2786 0.731801 -0.0259123 3.79117e-10 2.58838e-09 2.64034e-09 -2.22167 -0.733487 0.20892 -2.03217e-16 0.0 -3.88251e-19 -3.96892 -34.0613 -3.93099 -0.258303 34.1922 0.513687 -0.348688 -10.9352 0.381894 2.03217e-16 0.0 3.88251e-19 6.4764 -33.2361 11.8529 0.202442 35.055 -0.65549 1.96228 -10.7107 5.7754
